<?xml version="1.0" encoding="UTF-8" standalone="no"?>
<svg
   xmlns:dc="http://purl.org/dc/elements/1.1/"
   xmlns:cc="http://creativecommons.org/ns#"
   xmlns:rdf="http://www.w3.org/1999/02/22-rdf-syntax-ns#"
   xmlns:svg="http://www.w3.org/2000/svg"
   xmlns="http://www.w3.org/2000/svg"
   xmlns:sodipodi="http://sodipodi.sourceforge.net/DTD/sodipodi-0.dtd"
   xmlns:inkscape="http://www.inkscape.org/namespaces/inkscape"
   height="100px"
   width="100px"
   fill="#000000"
   version="1.1"
   x="0px"
   y="0px"
   viewBox="0 0 16 16"
   style="enable-background:new 0 0 16 16;"
   xml:space="preserve"
   id="svg14"
   sodipodi:docname="drone.svg"
   inkscape:version="0.92.4 (5da689c313, 2019-01-14)"><metadata
     id="metadata20"><rdf:RDF><cc:Work
         rdf:about=""><dc:format>image/svg+xml</dc:format><dc:type
           rdf:resource="http://purl.org/dc/dcmitype/StillImage" /></cc:Work></rdf:RDF></metadata><defs
     id="defs18" /><sodipodi:namedview
     pagecolor="#ffffff"
     bordercolor="#666666"
     borderopacity="1"
     objecttolerance="10"
     gridtolerance="10"
     guidetolerance="10"
     inkscape:pageopacity="0"
     inkscape:pageshadow="2"
     inkscape:window-width="1920"
     inkscape:window-height="1017"
     id="namedview16"
     showgrid="false"
     inkscape:zoom="4.72"
     inkscape:cx="88.557128"
     inkscape:cy="17.447507"
     inkscape:window-x="-8"
     inkscape:window-y="-8"
     inkscape:window-maximized="1"
     inkscape:current-layer="g12" /><g
     id="g12"><path
       d="M10.023,3.732C10.016,3.655,10,3.58,10,3.5C10,2.122,11.121,1,12.5,1S15,2.122,15,3.5C15,4.879,13.879,6,12.5,6   c-0.08,0-0.154-0.016-0.232-0.023l-0.521,0.938C11.99,6.968,12.24,7,12.5,7C14.434,7,16,5.434,16,3.5C16,1.567,14.434,0,12.5,0   S9,1.567,9,3.5C9,3.759,9.032,4.01,9.086,4.253L10.023,3.732z"
       id="path2" /><path
       d="M3.5,7c0.259,0,0.51-0.032,0.753-0.086L3.732,5.977C3.654,5.984,3.58,6,3.5,6C2.122,6,1,4.879,1,3.5C1,2.122,2.122,1,3.5,1   S6,2.122,6,3.5C6,3.58,5.984,3.654,5.977,3.732l0.938,0.521C6.968,4.01,7,3.759,7,3.5C7,1.567,5.434,0,3.5,0S0,1.567,0,3.5   C0,5.434,1.566,7,3.5,7z"
       id="path4" /><path
       d="M12.5,9c-0.26,0-0.51,0.033-0.753,0.086l0.521,0.938C12.346,10.016,12.421,10,12.5,10c1.379,0,2.5,1.121,2.5,2.5   S13.879,15,12.5,15S10,13.879,10,12.5c0-0.079,0.016-0.154,0.023-0.232l-0.938-0.521C9.032,11.99,9,12.241,9,12.5   c0,1.934,1.566,3.5,3.5,3.5s3.5-1.566,3.5-3.5S14.434,9,12.5,9z"
       id="path6" /><path
       d="M5.977,12.268C5.984,12.346,6,12.421,6,12.5C6,13.879,4.878,15,3.5,15S1,13.879,1,12.5S2.122,10,3.5,10   c0.08,0,0.154,0.017,0.232,0.023l0.521-0.938C4.01,9.032,3.759,9,3.5,9C1.566,9,0,10.566,0,12.5S1.566,16,3.5,16S7,14.434,7,12.5   c0-0.259-0.032-0.51-0.086-0.753L5.977,12.268z"
       id="path8" /><path
       style="stroke-width:6.25"
       d="M 31.25 12.5 C 28.44375 13.2875 26.111719 14.563281 24.011719 16.050781 C 22.461719 17.157031 21.017969 18.362109 19.667969 19.662109 C 18.374219 21.012109 17.182031 22.450781 16.082031 23.988281 C 14.582031 26.100781 13.3 28.4375 12.5 31.25 C 14.7375 30.6125 16.66875 29.669141 18.4375 28.556641 C 20.25625 27.419141 21.888281 26.086719 23.425781 24.667969 L 37.5 50 L 23.431641 75.332031 C 21.894141 73.907031 20.262109 72.580859 18.443359 71.443359 C 16.668359 70.330859 14.7375 69.3875 12.5 68.75 C 13.3 71.5625 14.582031 73.899219 16.082031 76.011719 C 17.175781 77.549219 18.380859 78.988281 19.662109 80.332031 C 21.018359 81.632031 22.455469 82.837109 24.011719 83.943359 C 26.117969 85.437109 28.44375 86.70625 31.25 87.5 C 30.61875 85.25625 29.674609 83.325391 28.568359 81.556641 C 27.430859 79.737891 26.100781 78.105859 24.675781 76.568359 L 50 62.5 L 75.324219 76.568359 C 73.899219 78.099609 72.569141 79.737891 71.431641 81.556641 C 70.325391 83.319141 69.38125 85.256641 68.75 87.494141 C 71.55 86.706641 73.874219 85.437109 75.980469 83.943359 C 77.530469 82.837109 78.975781 81.632031 80.332031 80.332031 C 81.619531 78.982031 82.812109 77.549219 83.912109 76.011719 C 85.412109 73.899219 86.694141 71.56875 87.494141 68.75 C 85.250391 69.3875 83.319531 70.330859 81.550781 71.443359 C 79.732031 72.580859 78.1 73.913281 76.5625 75.332031 L 62.5 50 L 76.568359 24.675781 C 78.105859 26.100781 79.737891 27.430859 81.556641 28.568359 C 83.325391 29.674609 85.25625 30.61875 87.5 31.25 C 86.70625 28.425 85.425781 26.092969 83.925781 23.980469 C 82.825781 22.442969 81.625391 21.005469 80.337891 19.667969 C 78.975391 18.374219 77.536719 17.1625 75.980469 16.0625 C 73.874219 14.56875 71.55 13.29375 68.75 12.5 C 69.3875 14.7375 70.330859 16.668359 71.443359 18.443359 C 72.580859 20.262109 73.913281 21.894141 75.332031 23.431641 L 50 37.5 L 24.667969 23.431641 C 26.099219 21.894141 27.424609 20.268359 28.568359 18.443359 C 29.674609 16.674609 30.6125 14.74375 31.25 12.5 z M 50 41.84375 A 8.1567794 8.1567794 0 0 1 58.15625 50 A 8.1567794 8.1567794 0 0 1 50 58.15625 A 8.1567794 8.1567794 0 0 1 41.84375 50 A 8.1567794 8.1567794 0 0 1 50 41.84375 z "
       transform="scale(0.16)"
       id="path10" /></g></svg>